<?xml version="1.0" encoding="utf-8"?>
<!-- Generator: Adobe Illustrator 12.0.0, SVG Export Plug-In . SVG Version: 6.00 Build 51448)  -->
<!DOCTYPE svg PUBLIC "-//W3C//DTD SVG 1.1//EN" "http://www.w3.org/Graphics/SVG/1.1/DTD/svg11.dtd" [
	<!ENTITY ns_svg "http://www.w3.org/2000/svg">
	<!ENTITY ns_xlink "http://www.w3.org/1999/xlink">
]>
<svg  version="1.1" id="Layer_1" xmlns="&ns_svg;" xmlns:xlink="&ns_xlink;" width="340.16" height="77.5"
	 viewBox="0 0 340.16 77.5" overflow="visible" enable-background="new 0 0 340.16 77.5" xml:space="preserve">
<g>
	<path d="M24.438,76V11.938H0V3.313h58.563v8.625H34.125V76H24.438z"/>
	<path d="M84.439,70.176c-0.748,0.554-1.749,1.327-3.001,2.319c-1.252,0.993-2.464,1.782-3.635,2.368
		c-1.627,0.847-3.196,1.497-4.708,1.953c-1.513,0.455-3.635,0.684-6.367,0.684c-2.244,0-4.375-0.423-6.392-1.269
		s-3.789-2.032-5.317-3.562c-1.464-1.496-2.635-3.343-3.513-5.538c-0.879-2.195-1.317-4.514-1.317-6.953
		c0-3.773,0.797-6.985,2.391-9.637c1.594-2.65,4.114-4.757,7.563-6.318c3.057-1.398,6.667-2.365,10.831-2.902
		c4.163-0.537,8.651-0.936,13.466-1.196v-1.759c0-2.15-0.326-3.885-0.977-5.205c-0.65-1.319-1.562-2.337-2.731-3.054
		c-1.172-0.749-2.603-1.246-4.294-1.49s-3.432-0.367-5.221-0.367c-2.115,0-4.604,0.315-7.466,0.946
		c-2.863,0.631-5.726,1.545-8.587,2.741h-0.537v-9.323c1.693-0.488,4.121-1.024,7.281-1.61s6.288-0.879,9.384-0.879
		c3.747,0,6.907,0.293,9.481,0.879s4.888,1.645,6.94,3.175c1.986,1.498,3.469,3.436,4.446,5.813s1.467,5.275,1.467,8.693V76h-9.188
		V70.176z M84.439,62.559V47.438c-2.177,0.195-4.93,0.463-8.259,0.804s-6.017,0.819-8.063,1.436
		c-2.437,0.746-4.45,1.891-6.042,3.432s-2.387,3.691-2.387,6.449c0,3.115,0.877,5.468,2.631,7.058S66.64,69,70.019,69
		c2.891,0,5.505-0.621,7.844-1.864C80.2,65.893,82.393,64.367,84.439,62.559z"/>
	<path d="M149.367,76h-9.188V44.946c0-2.506-0.122-4.842-0.366-7.006s-0.708-3.897-1.391-5.2c-0.749-1.367-1.79-2.384-3.124-3.052
		c-1.334-0.667-3.156-1.001-5.466-1.001c-2.277,0-4.629,0.61-7.053,1.831s-4.791,2.808-7.101,4.761V76h-9.188V0h9.188v27.507
		c2.734-2.441,5.436-4.313,8.104-5.615s5.484-1.954,8.446-1.954c5.37,0,9.568,1.767,12.596,5.299
		c3.027,3.533,4.541,8.652,4.541,15.358V76z"/>
	<path d="M207.129,48.743c0,9.18-2.212,16.267-6.635,21.263c-4.424,4.996-10.311,7.494-17.66,7.494
		c-7.578,0-13.538-2.579-17.88-7.738c-4.342-5.158-6.513-12.165-6.513-21.019c0-9.113,2.235-16.193,6.708-21.238
		c4.472-5.045,10.366-7.567,17.685-7.567c7.35,0,13.236,2.515,17.66,7.543C204.917,32.51,207.129,39.597,207.129,48.743z
		 M197.629,48.743c0-7.053-1.282-12.294-3.845-15.724c-2.563-3.43-6.214-5.145-10.95-5.145c-4.77,0-8.444,1.715-11.023,5.145
		c-2.58,3.43-3.869,8.671-3.869,15.724c0,6.826,1.289,12.003,3.869,15.529c2.579,3.527,6.254,5.29,11.023,5.29
		c4.704,0,8.346-1.73,10.926-5.192C196.339,60.908,197.629,55.699,197.629,48.743z"/>
	<path d="M278.488,76V44.458c0-2.506-0.098-4.825-0.293-6.957s-0.602-3.8-1.219-5.005c-0.65-1.302-1.577-2.262-2.78-2.881
		c-1.203-0.618-2.828-0.928-4.876-0.928c-1.887,0-3.91,0.577-6.072,1.731s-4.396,2.819-6.705,4.997
		c0.032,0.554,0.073,1.213,0.122,1.979s0.073,1.669,0.073,2.71V76h-9.188V44.458c0-2.506-0.098-4.825-0.293-6.957
		s-0.602-3.8-1.219-5.005c-0.65-1.302-1.577-2.262-2.78-2.881c-1.203-0.618-2.828-0.928-4.876-0.928
		c-1.983,0-4.064,0.618-6.242,1.853c-2.179,1.235-4.292,2.812-6.34,4.729V76h-9.188V21.438h9.188v6.068
		c2.407-2.408,4.79-4.272,7.148-5.591s4.953-1.978,7.783-1.978c3.221,0,6.075,0.732,8.563,2.197s4.384,3.874,5.686,7.227
		c2.765-3.092,5.465-5.436,8.1-7.031c2.635-1.595,5.498-2.393,8.589-2.393c2.342,0,4.473,0.366,6.393,1.099
		c1.919,0.732,3.595,1.913,5.026,3.541c1.464,1.66,2.595,3.728,3.392,6.202s1.195,5.583,1.195,9.327V76H278.488z"/>
	<path d="M330.973,70.176c-0.748,0.554-1.749,1.327-3.001,2.319c-1.252,0.993-2.464,1.782-3.635,2.368
		c-1.627,0.847-3.196,1.497-4.708,1.953c-1.513,0.455-3.635,0.684-6.367,0.684c-2.244,0-4.375-0.423-6.392-1.269
		s-3.789-2.032-5.317-3.562c-1.464-1.496-2.635-3.343-3.513-5.538c-0.879-2.195-1.317-4.514-1.317-6.953
		c0-3.773,0.797-6.985,2.391-9.637c1.594-2.65,4.114-4.757,7.563-6.318c3.057-1.398,6.667-2.365,10.831-2.902
		c4.163-0.537,8.651-0.936,13.466-1.196v-1.759c0-2.15-0.326-3.885-0.977-5.205c-0.65-1.319-1.562-2.337-2.731-3.054
		c-1.172-0.749-2.603-1.246-4.294-1.49s-3.432-0.367-5.221-0.367c-2.115,0-4.604,0.315-7.466,0.946
		c-2.863,0.631-5.726,1.545-8.587,2.741h-0.537v-9.323c1.693-0.488,4.121-1.024,7.281-1.61s6.288-0.879,9.384-0.879
		c3.747,0,6.907,0.293,9.481,0.879s4.888,1.645,6.94,3.175c1.986,1.498,3.469,3.436,4.446,5.813s1.467,5.275,1.467,8.693V76h-9.188
		V70.176z M330.973,62.559V47.438c-2.177,0.195-4.93,0.463-8.259,0.804s-6.017,0.819-8.063,1.436
		c-2.437,0.746-4.45,1.891-6.042,3.432s-2.387,3.691-2.387,6.449c0,3.115,0.877,5.468,2.631,7.058S313.173,69,316.552,69
		c2.891,0,5.505-0.621,7.844-1.864C326.733,65.893,328.926,64.367,330.973,62.559z"/>
</g>
</svg>
